<svg width="67" height="63" viewBox="0 0 67 63" fill="none" xmlns="http://www.w3.org/2000/svg">
<g clip-path="url(#clip0_119_1515)">
<path d="M60.9192 0H6.0808C4.4694 0.00428378 2.92523 0.641774 1.78579 1.77314C0.646354 2.9045 0.00431436 4.43773 0 6.03772L0 45.3997C0.00517657 46.9992 0.647597 48.5316 1.78694 49.6622C2.92629 50.7929 4.46997 51.4299 6.0808 51.4342H21.904C22.2353 52.3815 22.7093 53.2734 23.3097 54.0798L27.0988 59.3319C30.6263 64.2205 36.3998 64.2205 39.9273 59.3319L43.7164 54.0798C44.3168 53.2734 44.7908 52.3815 45.1222 51.4342H60.9323C62.5431 51.4299 64.0868 50.7929 65.2261 49.6622C66.3655 48.5316 67.0079 46.9992 67.0131 45.3997V6.03772C67.0088 4.43549 66.3649 2.9003 65.2226 1.76856C64.0804 0.636829 62.5329 0.00085335 60.9192 0Z" fill="#F25C5C"/>
<path d="M60.9192 0H33.5V63C35.8244 63 38.1489 61.7762 39.9143 59.3319L43.7033 54.0798C44.3038 53.2734 44.7777 52.3815 45.1091 51.4342H60.9192C62.53 51.4299 64.0737 50.7929 65.2131 49.6622C66.3524 48.5316 66.9948 46.9992 67 45.3997V6.03772C66.9957 4.43773 66.3536 2.9045 65.2142 1.77314C64.0748 0.641774 62.5306 0.00428378 60.9192 0Z" fill="#E04646"/>
<path d="M43.5268 16.581C40.1398 15.169 35.7852 17.1523 33.8106 21.8235L33.7419 21.9987L33.6667 21.8235C31.5907 17.2043 27.1936 15.3086 23.8393 16.7953C20.4851 18.282 19.4422 22.5733 21.5182 27.2022C21.8287 27.8965 22.2018 28.5614 22.633 29.1888C22.633 29.1888 25.6963 34.6844 33.9283 39.0861C42.0589 34.5059 45.0012 28.9486 45.0012 28.9486C45.4191 28.3113 45.778 27.6377 46.0735 26.936C48.0579 22.2649 46.9137 17.9931 43.5268 16.581Z" fill="#EFE9F2"/>
</g>
<defs>
<clipPath id="clip0_119_1515">
<rect width="67" height="63" fill="white"/>
</clipPath>
</defs>
</svg>
